<svg xmlns="http://www.w3.org/2000/svg" viewBox="-95 -70 190 130" width="1900" height="1300">
  <!-- 伊豆七島 アーチと太陽（フルカラー・胸プリント用） -->
  <defs>
    <path id="pCone" d="M -20 0 Q -12 -3 -7 -12 Q 0 -19 7 -12 Q 12 -3 20 0 Z"/>
    <path id="pDome" d="M -18 0 Q 0 -21 18 0 Z"/>
    <path id="pTwin" d="M -20 0 Q -11 -15 -2 0 Z M -4 0 Q 8 -21 20 0 Z"/>
  </defs>
  <path d="M-80 10 Q0 -55 80 10" fill="none" stroke="#7fb1c9" stroke-width="1.6" stroke-dasharray="4 4"/>
  <circle cx="62" cy="-48" r="9" fill="#f5b942"/>
  <g fill="#3f8e47">
    <use href="#pCone" transform="translate(-67,0) scale(0.8)"/>
    <use href="#pCone" transform="translate(-48,-11) scale(0.45)"/>
    <use href="#pDome" transform="translate(-24,-20) scale(0.9,0.5)"/>
    <use href="#pDome" transform="translate(0,-23) scale(0.6)"/>
    <use href="#pCone" transform="translate(24,-20) scale(0.65)"/>
    <use href="#pDome" transform="translate(48,-11) scale(0.4,0.6)"/>
    <use href="#pTwin" transform="translate(67,0) scale(0.7)"/>
  </g>
  <circle cx="25.5" cy="-34" r="1.8" fill="#9db8c2"/>
  <text x="0" y="34" text-anchor="middle" font-family="'Zen Maru Gothic','Hiragino Maru Gothic ProN',sans-serif" font-size="12" font-weight="700" letter-spacing="4" fill="#17395f">島キャンプ</text>
  <text x="2" y="51" text-anchor="middle" font-family="'Zen Maru Gothic',sans-serif" font-size="11" letter-spacing="1.5" fill="#5a7a88">ISLAND HOPPING</text>
</svg>
