<svg viewBox="12 14 116 116" xmlns="http://www.w3.org/2000/svg">
  <defs>
    <linearGradient id="bg" x1="0" y1="0" x2="1" y2="1">
      <stop offset="0" stop-color="#ffe9f3"/>
      <stop offset="1" stop-color="#fff6ea"/>
    </linearGradient>
  </defs>
  <rect x="12" y="14" width="116" height="116" rx="26" fill="url(#bg)"/>
  <ellipse cx="70" cy="72" rx="50" ry="48" fill="#ffe1ee"/>
  <ellipse cx="70" cy="72" rx="50" ry="48" fill="none" stroke="#ffc4dd" stroke-width="3"/>
  <circle cx="70" cy="74" r="40" fill="#ffe6d6"/>
  <path d="M32 70 Q30 34 70 32 Q110 34 108 70 Q104 52 92 50 Q96 60 88 60 Q86 50 78 50 Q80 60 72 60 Q70 50 62 51 Q64 61 56 60 Q56 50 48 52 Q40 54 32 70 Z" fill="#ff8fc0"/>
  <circle cx="46" cy="84" r="9.5" fill="#ffadc4" opacity=".8"/>
  <circle cx="94" cy="84" r="9.5" fill="#ffadc4" opacity=".8"/>
  <circle cx="56" cy="78" r="10" fill="#fff"/>
  <circle cx="84" cy="78" r="10" fill="#fff"/>
  <circle cx="57" cy="79" r="7.5" fill="#5a3a44"/>
  <circle cx="85" cy="79" r="7.5" fill="#5a3a44"/>
  <circle cx="54" cy="76" r="3" fill="#fff"/>
  <circle cx="82" cy="76" r="3" fill="#fff"/>
  <circle cx="60" cy="82" r="1.6" fill="#fff" opacity=".8"/>
  <circle cx="88" cy="82" r="1.6" fill="#fff" opacity=".8"/>
  <path d="M64 94 Q70 101 76 94" stroke="#e06a90" stroke-width="3" stroke-linecap="round" fill="none"/>
  <ellipse cx="70" cy="96" rx="5" ry="3.5" fill="#ff7fa8"/>
  <path d="M100 50 l11 -7 0 15 z" fill="#ff5a9e"/>
  <path d="M120 50 l-11 -7 0 15 z" fill="#ff5a9e"/>
  <circle cx="110" cy="50" r="4.5" fill="#ff7eb3"/>
</svg>
